<svg width="600" height="360" viewBox="0 0 600 360" xmlns="http://www.w3.org/2000/svg" role="img" aria-labelledby="title desc">
  <title>Realtime Logistics Dashboard Cover</title>
  <desc>Stylised dashboard showing logistics metrics</desc>
  <rect width="600" height="360" rx="32" fill="#0B1120" />
  <rect x="70" y="60" width="460" height="240" rx="24" fill="#111C36" />
  <rect x="102" y="92" width="180" height="20" rx="10" fill="#38BDF8" />
  <rect x="102" y="132" width="140" height="20" rx="10" fill="#22D3EE" />
  <rect x="102" y="172" width="200" height="20" rx="10" fill="#A855F7" />
  <rect x="102" y="212" width="120" height="20" rx="10" fill="#F97316" />
  <rect x="102" y="252" width="228" height="20" rx="10" fill="#4ADE80" />
  <path d="M320 120c26 0 52 24 78 24s52-24 78-24 52 24 78 24" stroke="#22D3EE" stroke-width="6" fill="none" stroke-linecap="round" />
  <path d="M320 180c22 0 44-32 66-32s44 32 66 32 44-32 66-32" stroke="#FDE047" stroke-width="6" fill="none" stroke-linecap="round" />
</svg>
